<?xml version="1.0" encoding="UTF-8"?>
<svg version="1.1" xmlns="http://www.w3.org/2000/svg" width="512" height="512">
<path d="M0 0 C0.82072998 -0.00524185 1.64145996 -0.0104837 2.48706055 -0.0158844 C4.21499505 -0.0222818 5.94297323 -0.02099727 7.67089844 -0.01245117 C10.30482884 -0.00393106 12.93659538 -0.03274824 15.5703125 -0.06445312 C17.25520769 -0.06606521 18.94010669 -0.06548747 20.625 -0.0625 C21.79712036 -0.07935097 21.79712036 -0.07935097 22.99291992 -0.09654236 C28.21750018 -0.0303972 31.14051106 1.02839799 35.3125 4.43359375 C38.63797167 8.21775116 39.44027423 11.35084593 39.41015625 16.3203125 C39.40693359 17.25810547 39.40371094 18.19589844 39.40039062 19.16210938 C39.39201172 20.13857422 39.38363281 21.11503906 39.375 22.12109375 C39.37048828 23.10916016 39.36597656 24.09722656 39.36132812 25.11523438 C39.34954303 27.55474849 39.33309011 29.99414064 39.3125 32.43359375 C40.34818115 32.68653198 40.34818115 32.68653198 41.40478516 32.94458008 C52.59449144 35.7259708 63.06649559 40.20327397 73.3125 45.43359375 C73.92508667 44.80529663 73.92508667 44.80529663 74.55004883 44.16430664 C76.40310864 42.26967599 78.2639192 40.38284463 80.125 38.49609375 C80.76759766 37.83673828 81.41019531 37.17738281 82.07226562 36.49804688 C82.69423828 35.86962891 83.31621094 35.24121094 83.95703125 34.59375 C84.52784424 34.01246338 85.09865723 33.43117676 85.68676758 32.83227539 C88.69004382 30.24843854 91.82357705 30.22099283 95.625 30.12109375 C96.54925781 30.08371094 97.47351563 30.04632813 98.42578125 30.0078125 C105.88714904 31.10833901 111.4649997 38.18083473 116.57250977 43.26806641 C117.99479803 44.67843537 119.43588448 46.06976329 120.87695312 47.4609375 C126.64277611 53.18187438 130.93225038 57.64342903 131.484375 66.05078125 C129.89489163 74.55746077 124.43612816 79.96755414 117.9609375 85.41015625 C116.04417427 87.31093197 116.04417427 87.31093197 116.390625 89.84765625 C117.3966039 92.66951232 118.63180147 95.17581347 120.0625 97.80859375 C122.54425224 102.62822853 124.49604967 107.42356849 126.1875 112.55859375 C126.50992676 113.53578369 126.50992676 113.53578369 126.83886719 114.53271484 C128.3125 119.13751291 128.3125 119.13751291 128.3125 121.43359375 C128.91723145 121.4178833 129.52196289 121.40217285 130.14501953 121.38598633 C132.90908296 121.32327495 135.67299621 121.28448964 138.4375 121.24609375 C139.38882812 121.22095703 140.34015625 121.19582031 141.3203125 121.16992188 C146.75445799 121.11331619 150.64472539 121.31188078 155.3125 124.43359375 C160.0275988 129.65843296 160.48923071 133.08392051 160.55078125 139.94921875 C160.558853 140.79780457 160.56692474 141.64639038 160.57524109 142.52069092 C160.58908441 144.31959997 160.59980546 146.11853532 160.60766602 147.91748047 C160.62484614 150.65904103 160.66872484 153.39938531 160.71289062 156.140625 C160.72302061 157.88931406 160.73153575 159.63801336 160.73828125 161.38671875 C160.75578934 162.20255432 160.77329742 163.01838989 160.79133606 163.85894775 C160.77114312 169.20058899 159.82516354 172.17646255 156.3125 176.43359375 C152.52834259 179.75906542 149.39524782 180.56136798 144.42578125 180.53125 C143.48798828 180.52802734 142.55019531 180.52480469 141.58398438 180.52148438 C140.60751953 180.51310547 139.63105469 180.50472656 138.625 180.49609375 C137.63693359 180.49158203 136.64886719 180.48707031 135.63085938 180.48242188 C133.19134526 180.47063678 130.75195311 180.45418386 128.3125 180.43359375 C128.07466797 181.56970093 128.07466797 181.56970093 127.83203125 182.72875977 C125.70054739 192.63425879 121.96214663 202.95912381 116.3125 211.43359375 C116.46909176 215.6180735 119.2849856 217.6410476 122.1875 220.37109375 C127.28176552 225.17574359 130.78588858 229.12169784 131.35302734 236.3581543 C131.16279849 246.09993419 123.28474407 252.06575064 116.8125 258.30859375 C115.74239256 259.36216817 114.67337184 260.41684756 113.60546875 261.47265625 C103.47930547 271.42408721 103.47930547 271.42408721 96.640625 272.48046875 C89.73803585 272.34149045 85.67472334 269.55458464 81 264.93359375 C80.47599609 264.43472656 79.95199219 263.93585938 79.41210938 263.421875 C77.35119804 261.45332205 75.32770944 259.44880319 73.3125 257.43359375 C70.45163113 257.83836362 68.00323164 258.94673866 65.40625 260.17578125 C64.29805908 260.69011719 64.29805908 260.69011719 63.16748047 261.21484375 C62.39033691 261.57578125 61.61319336 261.93671875 60.8125 262.30859375 C53.70829364 265.5509748 46.98101169 267.88915918 39.3125 269.43359375 C39.33606567 270.34069092 39.33606567 270.34069092 39.36010742 271.26611328 C39.4228188 274.03017671 39.46160411 276.79408996 39.5 279.55859375 C39.52513672 280.50992187 39.55027344 281.46125 39.57617188 282.44140625 C39.63277756 287.87555174 39.43421297 291.76581914 36.3125 296.43359375 C31.08766079 301.14869255 27.66217324 301.61032446 20.796875 301.671875 C19.94828918 301.67994675 19.09970337 301.68801849 18.22540283 301.69633484 C16.42649378 301.71017816 14.62755843 301.72089921 12.82861328 301.72875977 C10.08705272 301.74593989 7.34670844 301.78981859 4.60546875 301.83398438 C2.85677969 301.84411436 1.10808039 301.8526295 -0.640625 301.859375 C-1.45646057 301.87688309 -2.27229614 301.89439117 -3.112854 301.91242981 C-8.45449524 301.89223687 -11.4303688 300.94625729 -15.6875 297.43359375 C-19.01297167 293.64943634 -19.81527423 290.51634157 -19.78515625 285.546875 C-19.78032227 284.14018555 -19.78032227 284.14018555 -19.77539062 282.70507812 C-19.76282227 281.24038086 -19.76282227 281.24038086 -19.75 279.74609375 C-19.74548828 278.75802734 -19.74097656 277.76996094 -19.73632812 276.75195312 C-19.72454303 274.31243901 -19.70809011 271.87304686 -19.6875 269.43359375 C-20.4086499 269.25473633 -21.1297998 269.07587891 -21.87280273 268.89160156 C-30.76703333 266.65301558 -39.10472498 263.39240077 -47.1875 259.05859375 C-50.33125875 257.27934789 -50.33125875 257.27934789 -52.58203125 257.49609375 C-55.70016983 258.88450425 -57.62558226 261.32517618 -59.875 263.80859375 C-64.29005513 268.41628167 -68.1213188 271.90501029 -74.6875 272.43359375 C-85.87564502 272.22249667 -93.20963499 262.09250888 -100.5625 254.74609375 C-101.32046875 254.00037109 -102.0784375 253.25464844 -102.859375 252.48632812 C-103.58382812 251.76380859 -104.30828125 251.04128906 -105.0546875 250.296875 C-105.70550293 249.65016846 -106.35631836 249.00346191 -107.02685547 248.3371582 C-110.1719579 244.73198859 -110.99603368 241.80428911 -111.0625 237.05859375 C-111.10503906 235.68574219 -111.10503906 235.68574219 -111.1484375 234.28515625 C-110.13660158 228.02549333 -105.32027516 223.7918254 -100.9375 219.55859375 C-100.43089844 219.06101562 -99.92429688 218.5634375 -99.40234375 218.05078125 C-98.16864693 216.84036173 -96.92872216 215.63629522 -95.6875 214.43359375 C-95.93918945 213.89581299 -96.19087891 213.35803223 -96.45019531 212.80395508 C-101.24152603 202.51313409 -105.81305261 192.44895859 -108.6875 181.43359375 C-109.29223145 181.41901123 -109.89696289 181.40442871 -110.52001953 181.3894043 C-113.28479265 181.31450187 -116.04841357 181.21798302 -118.8125 181.12109375 C-119.76382813 181.09853516 -120.71515625 181.07597656 -121.6953125 181.05273438 C-127.05542101 180.84800801 -131.07594198 180.45924354 -135.6875 177.43359375 C-140.3364859 172.28201478 -140.86319585 168.94069732 -140.92578125 162.171875 C-140.933853 161.3478569 -140.94192474 160.52383881 -140.95024109 159.67485046 C-140.96408523 157.92721664 -140.97480591 156.17955574 -140.98266602 154.43188477 C-140.9998217 151.77371985 -141.04369628 149.11681745 -141.08789062 146.45898438 C-141.09802286 144.75912371 -141.1065373 143.05925248 -141.11328125 141.359375 C-141.13954338 140.17617424 -141.13954338 140.17617424 -141.16633606 138.96907043 C-141.14443317 133.32555211 -139.9370278 130.07373477 -136.6875 125.43359375 C-130.98566981 120.98834525 -125.8221079 120.78994124 -118.75 120.68359375 C-117.77998047 120.65394531 -116.80996094 120.62429688 -115.81054688 120.59375 C-113.43611702 120.52356981 -111.06263914 120.47062051 -108.6875 120.43359375 C-108.33558594 119.29664063 -107.98367187 118.1596875 -107.62109375 116.98828125 C-104.4365855 106.94583954 -100.72203743 97.69833423 -95.6875 88.43359375 C-96.43515625 87.72074219 -97.1828125 87.00789063 -97.953125 86.2734375 C-110.76198489 73.90417162 -110.76198489 73.90417162 -111.1875 64.87109375 C-111.2575324 58.83955325 -108.30692529 55.23378893 -104.36914062 50.85644531 C-103.53576172 50.02081055 -102.70238281 49.18517578 -101.84375 48.32421875 C-100.92722656 47.40511719 -100.01070312 46.48601562 -99.06640625 45.5390625 C-98.35701904 44.83595947 -98.35701904 44.83595947 -97.63330078 44.11865234 C-96.18412672 42.68024553 -94.74600827 41.23139801 -93.30859375 39.78125 C-92.39207031 38.86730469 -91.47554688 37.95335937 -90.53125 37.01171875 C-89.69787109 36.1805957 -88.86449219 35.34947266 -88.00585938 34.49316406 C-83.30773646 30.31947357 -79.56372751 29.97013499 -73.41796875 30.140625 C-64.4403648 31.10388723 -58.57250476 39.26125603 -52.6875 45.43359375 C-52.18001221 45.1819043 -51.67252441 44.93021484 -51.1496582 44.67089844 C-41.1729882 39.75299627 -31.49991553 35.20949217 -20.6875 32.43359375 C-20.68339111 31.83933594 -20.67928223 31.24507812 -20.67504883 30.6328125 C-20.64183011 27.8987793 -20.57116064 25.16689231 -20.5 22.43359375 C-20.49129883 21.03173828 -20.49129883 21.03173828 -20.48242188 19.6015625 C-20.28318988 13.2704123 -19.29849921 8.05891072 -14.6875 3.43359375 C-9.75634313 0.2660786 -5.67060196 -0.02130349 0 0 Z M-24.6875 118.2421875 C-33.11744683 127.47890659 -37.79161711 139.97424662 -37.6875 152.43359375 C-37.04377638 164.86762364 -31.46562667 176.60215572 -22.84375 185.5390625 C-13.17962943 194.03018293 -0.5499602 198.81376499 12.3125 198.43359375 C25.76933029 196.86463596 37.13288692 191.49172449 46.3125 181.43359375 C54.61400665 170.29697434 58.46006014 157.42398646 56.8125 143.62109375 C54.47220009 131.60755422 47.84545239 120.02053344 37.96875 112.6953125 C17.14315337 99.41569946 -6.52705653 101.15191302 -24.6875 118.2421875 Z " fill="#000000" transform="translate(351.6875,210.56640625)"/>
<path d="M0 0 C17.49228411 4.45190688 38.6750951 3.48421525 55.62109375 -2.8125 C68.7465904 -7.40029042 86.09328049 2.8046929 97.79296875 8.41040039 C114.10314377 16.47007739 128.4288757 27.55047229 141.68359375 39.9375 C141.35359375 40.9275 141.02359375 41.9175 140.68359375 42.9375 C137.30674278 41.4696346 135.07144616 39.54770997 132.43359375 37 C126.20143808 31.39817655 120.67207143 29.26689538 112.25390625 29.6015625 C103.32775009 30.76820297 97.43475297 35.24823369 91.18798828 41.4609375 C89.4645394 43.15250173 87.69794197 44.79285941 85.9296875 46.4375 C77.1810283 54.70024176 68.71874918 62.82328434 68.05859375 75.5625 C68.79498975 86.46742797 73.67083773 92.84929275 81.68359375 99.9375 C80.17088082 104.65187718 78.41586421 109.22708585 76.55859375 113.8125 C76.28144531 114.50085938 76.00429687 115.18921875 75.71875 115.8984375 C75.04195142 117.57876501 74.36299572 119.25822342 73.68359375 120.9375 C72.70519531 120.96328125 71.72679687 120.9890625 70.71875 121.015625 C61.49176602 121.41482588 54.13071078 122.18215673 46.87109375 128.3125 C40.69114174 135.72844242 38.37857003 142.2379732 38.34765625 151.890625 C38.34099945 152.63149353 38.33434265 153.37236206 38.32748413 154.13568115 C38.31741621 155.69540956 38.31266528 157.25518054 38.31298828 158.81494141 C38.30863035 161.16773739 38.27229413 163.51863051 38.234375 165.87109375 C38.16046964 175.8500327 39.12049051 184.0838304 44.43359375 192.8125 C53.13573916 201.03119289 62.09588804 201.64997714 73.68359375 202.9375 C76.32359375 209.2075 78.96359375 215.4775 81.68359375 221.9375 C75.68359375 228.9375 75.68359375 228.9375 73.49609375 231.375 C68.70329174 238.15103043 68.0487868 244.77046444 68.68359375 252.9375 C68.98804646 254.60968343 69.31298435 256.27872408 69.68359375 257.9375 C66.89260418 258.42090669 64.10089719 258.89929062 61.30859375 259.375 C60.53386719 259.50970703 59.75914062 259.64441406 58.9609375 259.78320312 C10.36649536 268.0161458 -41.04822879 259.24249201 -84.31640625 235.9375 C-84.97979004 235.58574707 -85.64317383 235.23399414 -86.32666016 234.87158203 C-104.85940298 225.0043045 -121.10096252 212.36968924 -136.31640625 197.9375 C-136.81962402 197.46296387 -137.3228418 196.98842773 -137.84130859 196.49951172 C-161.41881381 174.12022002 -161.41881381 174.12022002 -161.87890625 162.1875 C-161.1557694 121.09631193 -131.16629879 76.19821227 -104.12890625 47 C-103.57090332 46.39712158 -103.01290039 45.79424316 -102.43798828 45.1730957 C-77.93368521 19.22038633 -36.64360979 -10.37155241 0 0 Z " fill="#000000" transform="translate(161.31640625,200.0625)"/>
<path d="M0 0 C20.71710721 16.0381415 35.47093696 37.58760686 39.3984375 63.83203125 C42.63772124 90.45931242 36.70414519 115.55083833 20.87109375 137.22265625 C3.84347183 158.49224714 -19.36907377 171.8337379 -46.5234375 174.90625 C-71.11784171 177.06458883 -96.34724424 170.39822911 -115.81640625 154.91015625 C-117.604901 153.36790353 -119.37613069 151.80538642 -121.12890625 150.22265625 C-121.97195312 149.47371094 -122.815 148.72476563 -123.68359375 147.953125 C-139.78467424 132.83014753 -151.03797349 110.17236569 -152.25317383 87.95019531 C-153.20758289 56.92451367 -144.92891235 32.06080105 -123.50390625 9.22265625 C-90.56449714 -22.56098412 -37.33125088 -26.28889988 0 0 Z " fill="#000000" transform="translate(240.12890625,16.77734375)"/>
</svg>
